<svg width="17" height="16" viewBox="0 0 17 16" fill="none" xmlns="http://www.w3.org/2000/svg">
<path d="M16.3014 2.91312H3.00953L2.81197 0.652929C2.77977 0.283334 2.47795 0 2.1167 0H0.698262C0.312441 0 0 0.320839 0 0.717029C0 1.11322 0.312441 1.43406 0.698262 1.43406H1.47854C1.90486 6.3121 0.802852 -6.29574 2.28139 10.6204C2.3385 11.2825 2.6868 12.0009 3.28678 12.4892C2.20469 13.9082 3.19348 16 4.95357 16C6.41451 16 7.4448 14.5039 6.94377 13.0869H10.7648C10.2644 14.5022 11.2927 16 12.755 16C13.9221 16 14.8717 15.0249 14.8717 13.8264C14.8717 12.628 13.9221 11.6528 12.755 11.6528H4.95822C4.42797 11.6528 3.96578 11.3241 3.76623 10.8454L14.9238 10.1721C15.2283 10.1536 15.4863 9.93441 15.5603 9.63028L16.9787 3.8037C17.089 3.35227 16.756 2.91312 16.3014 2.91312ZM4.95357 14.5663C4.55646 14.5663 4.2334 14.2345 4.2334 13.8268C4.2334 13.419 4.55646 13.0872 4.95357 13.0872C5.35068 13.0872 5.67375 13.419 5.67375 13.8268C5.67375 14.2345 5.35068 14.5663 4.95357 14.5663ZM12.7553 14.5663C12.3582 14.5663 12.0351 14.2345 12.0351 13.8268C12.0351 13.419 12.3582 13.0872 12.7553 13.0872C13.1524 13.0872 13.4755 13.419 13.4755 13.8268C13.4755 14.2345 13.1524 14.5663 12.7553 14.5663ZM14.3301 8.77175L3.5783 9.42059L3.13504 4.34684H15.4076L14.3301 8.77175Z" fill="#00284F"/>
</svg>
