<svg width="198" height="32" viewBox="0 0 198 32" fill="none" xmlns="http://www.w3.org/2000/svg">
<g clip-path="url(#clip0_1_13)">
<path d="M3.08328 25.7945V5.20649C3.08328 4.54492 3.08328 4.04214 3.0435 3.77089C3.00413 3.48067 2.91674 3.19899 2.7849 2.93732C2.55283 2.36837 1.96933 2.07067 1.02776 2.03759C0.364692 2.03759 0 1.75311 0 1.27017C0 0.787226 0.351429 0.608603 1.06755 0.608603H10.629C12.7271 0.584751 14.8168 0.87465 16.8288 1.46864C18.5679 1.97253 20.1964 2.79842 21.6294 3.9032C22.9235 4.92205 23.9839 6.20561 24.7392 7.66752C25.4884 9.15249 25.8704 10.7949 25.8532 12.4573C25.8532 15.5446 24.737 17.9196 22.5047 19.5824C20.2723 21.2451 17.1139 22.0787 13.0294 22.0831C12.3707 22.0831 11.7076 22.0632 11.0401 22.0235C10.3771 21.9772 9.80684 21.9111 9.32279 21.8317C9.01115 21.7721 8.71939 21.7258 8.44753 21.6994C8.17567 21.6729 7.98339 21.6597 7.86404 21.6597C7.37999 21.6597 7.13465 21.9309 7.13465 22.4668V26.7471C7.13465 27.4087 7.13466 27.9115 7.18107 28.1827C7.20863 28.4549 7.28029 28.7208 7.39325 28.97C7.52297 29.2659 7.75974 29.5021 8.05632 29.6316C8.43588 29.7753 8.83268 29.8687 9.23659 29.9094C9.89966 29.9094 10.2246 30.1939 10.2246 30.6768C10.2246 31.1598 9.86652 31.3384 9.1504 31.3384H1.02776C0.364692 31.3384 0 31.1135 0 30.6768C0 30.2402 0.324903 29.9359 0.981344 29.9094C1.37946 29.8726 1.77022 29.779 2.14172 29.6316C2.43612 29.499 2.6719 29.2637 2.80479 28.97C2.9445 28.7425 3.03275 28.4874 3.06339 28.2224C3.06339 27.9512 3.10317 27.4616 3.10317 26.7471L3.08328 25.7945ZM10.2047 2.18313C9.37895 2.10786 8.54839 2.26124 7.80435 2.62638C7.56954 2.81902 7.38612 3.0666 7.27043 3.34709C7.15474 3.62757 7.11037 3.93225 7.14128 4.23399V17.7763C7.12569 18.1805 7.22436 18.581 7.42603 18.9319C7.6277 19.2829 7.92424 19.5702 8.28177 19.761C9.44645 20.2742 10.7176 20.5011 11.9883 20.4225C13.2158 20.451 14.4418 20.3198 15.6352 20.0322C16.5811 19.7771 17.4683 19.3412 18.2477 18.7488C20.3121 17.2139 21.3421 14.9756 21.3377 12.0339C21.3591 10.6348 21.0951 9.24608 20.5619 7.95199C20.0672 6.76114 19.305 5.69959 18.3339 4.84925C17.3055 3.96247 16.111 3.2879 14.8197 2.86455C13.3294 2.38552 11.7701 2.15528 10.2047 2.18313V2.18313Z" fill="#00284F"/>
<path d="M30.74 23.3996C30.3952 23.5121 30.2228 23.6378 30.2228 23.7833C30.2881 24.2608 30.4338 24.7238 30.6538 25.1528C31.2924 26.626 32.3133 27.9026 33.6111 28.8509C34.807 29.7191 36.2499 30.1828 37.7288 30.1741C38.769 30.1703 39.7944 29.9281 40.7259 29.4662C41.7197 28.9805 42.6093 28.3064 43.345 27.4815C43.4354 27.3554 43.5533 27.2513 43.6898 27.1772C43.782 27.1277 43.8838 27.0983 43.9882 27.0912C44.3595 27.0912 44.5452 27.2963 44.5452 27.6932C44.5298 27.9072 44.4565 28.113 44.333 28.2886C43.4424 29.4787 42.2499 30.4104 40.8784 30.9878C39.4297 31.6386 37.8588 31.9746 36.27 31.9735C34.8579 31.9878 33.4575 31.7178 32.1524 31.1797C30.9254 30.6763 29.8136 29.9294 28.8847 28.9844C27.9557 28.0393 27.2289 26.9158 26.7483 25.6821C25.751 23.068 25.7228 20.1844 26.6688 17.5514C27.0882 16.3826 27.7349 15.3079 28.5718 14.3891C29.3931 13.5014 30.3854 12.7882 31.4893 12.2919C32.6412 11.7734 33.8925 11.5116 35.1561 11.5245C36.5415 11.5099 37.9087 11.8396 39.1345 12.4838C40.3889 13.1596 41.4798 14.1013 42.3305 15.2425C42.9288 16.0301 43.4443 16.8769 43.8689 17.7697C44.0428 18.1306 44.1463 18.5213 44.1739 18.9208C44.179 19.0379 44.1436 19.153 44.0735 19.247C44.0035 19.341 43.9031 19.4081 43.7893 19.4369L30.74 23.3996ZM30.0107 22.0302C30.1466 22.0128 30.2775 21.9678 30.3952 21.8979L39.7446 19.1656C40.0827 19.0796 40.2551 18.9208 40.2551 18.6959C40.2409 18.471 40.1986 18.2488 40.1291 18.0343C40.0429 17.7366 39.9302 17.3728 39.7843 17.0287C39.4424 16.1356 38.9003 15.3323 38.1996 14.6802C37.6964 14.1845 37.0999 13.7931 36.4444 13.5285C35.7889 13.264 35.0874 13.1315 34.3803 13.1387C33.6899 13.1175 33.005 13.2686 32.3879 13.5782C31.7708 13.8878 31.2408 14.3461 30.8461 14.9117C29.8936 16.3466 29.4287 18.049 29.52 19.7676C29.5098 20.3129 29.552 20.8579 29.646 21.3951C29.752 21.8185 29.8979 22.0302 30.0107 22.0302V22.0302Z" fill="#00284F"/>
<path d="M51.7064 12.4837L51.7462 15.6063C51.7462 15.8048 51.7462 15.9041 51.8324 15.9041C51.9964 15.7371 52.1389 15.5504 52.2567 15.3483C52.5543 14.8181 52.9199 14.3289 53.3442 13.8929C53.7801 13.4389 54.2674 13.0371 54.7963 12.6955C55.304 12.3635 55.8493 12.0926 56.4208 11.8883C56.9678 11.6935 57.5441 11.5928 58.1249 11.5906C58.6168 11.589 59.1062 11.6603 59.5771 11.8023C60.0131 11.9378 60.4316 12.1243 60.8236 12.358C61.0226 12.444 61.122 12.5499 61.122 12.6624C61.124 12.8007 61.0796 12.9357 60.996 13.0461C60.7109 13.7076 60.4589 14.3692 60.2467 14.9911C60.0842 15.4463 59.947 15.9101 59.8356 16.3804C59.8178 16.6359 59.7282 16.8812 59.5771 17.0882C59.5173 17.1525 59.4442 17.2029 59.3629 17.2361C59.2816 17.2692 59.194 17.2842 59.1063 17.2801C58.7946 17.2801 58.6222 16.9956 58.5957 16.4267C58.5915 16.147 58.5312 15.8709 58.4181 15.6149C58.3051 15.3589 58.1417 15.1282 57.9377 14.9363C57.7336 14.7445 57.4931 14.5954 57.2302 14.498C56.9674 14.4006 56.6877 14.3568 56.4076 14.3692C55.7655 14.3665 55.1326 14.521 54.5642 14.8191C53.9884 15.1241 53.4843 15.5481 53.0856 16.0628C52.6556 16.6165 52.3217 17.2382 52.0976 17.902C51.85 18.6236 51.7267 19.3819 51.7329 20.1447V27.5873C51.6685 28.215 51.8282 28.8452 52.1838 29.3669C52.6748 29.7768 53.2826 30.0221 53.921 30.0682C54.4913 30.1542 54.7764 30.3857 54.7764 30.7298C54.7764 31.0738 54.478 31.3252 53.8746 31.3252H46.1763C45.5464 31.3252 45.2282 31.1135 45.2282 30.6636C45.2282 30.3527 45.5332 30.141 46.1299 30.002C46.5008 29.9566 46.8629 29.8563 47.2041 29.7043C47.484 29.6031 47.7189 29.4062 47.8672 29.1486C48.1021 28.6403 48.1916 28.0771 48.1258 27.5212V18.2658C48.1668 17.6908 48.0854 17.1137 47.8871 16.5722C47.7871 16.4094 47.6529 16.2701 47.4938 16.1639C47.3347 16.0577 47.1544 15.9871 46.9654 15.957L46.6206 15.871C46.464 15.8487 46.3205 15.7712 46.2161 15.6527C46.1184 15.5487 46.0639 15.4115 46.0636 15.2689C46.068 15.1544 46.102 15.0431 46.1624 14.9456C46.2229 14.8482 46.3076 14.7681 46.4084 14.7132L50.9173 11.8883C50.9898 11.8286 51.082 11.7979 51.1759 11.8023C51.4942 11.8222 51.6732 12.0339 51.7064 12.4837Z" fill="#00284F"/>
<path d="M66.7979 0.767343V27.6997C66.7926 28.0296 66.8148 28.3593 66.8642 28.6855C66.8967 28.8752 66.9478 29.0614 67.0167 29.2412C67.1832 29.4985 67.4107 29.711 67.679 29.8598C67.9472 30.0086 68.2481 30.0893 68.555 30.0946C69.1584 30.1806 69.4568 30.4122 69.4568 30.7562C69.4568 31.1002 69.1319 31.3516 68.4755 31.3516H61.5265C60.8966 31.3516 60.5849 31.1399 60.5849 30.69C60.5849 30.2402 60.8833 30.1343 61.4867 30.0285C61.7819 29.9519 62.0685 29.8455 62.3421 29.7109C62.584 29.6016 62.7807 29.4123 62.899 29.175C63.1356 28.6531 63.225 28.0767 63.1576 27.5079V6.13927C63.1623 5.95948 63.1468 5.77973 63.1112 5.60341C63.0993 5.27646 62.9768 4.96316 62.7637 4.71451C62.5506 4.46585 62.2595 4.29648 61.9376 4.23396L61.6458 4.14795C61.5698 4.14543 61.495 4.12776 61.4259 4.09594C61.3567 4.06413 61.2947 4.01883 61.2434 3.96272C61.1921 3.90662 61.1526 3.84083 61.1272 3.76925C61.1018 3.69767 61.091 3.62174 61.0955 3.54593C61.1088 3.42801 61.1516 3.31531 61.2199 3.21821C61.2883 3.1211 61.38 3.0427 61.4867 2.99021L66.0287 0.171937C66.056 0.143413 66.089 0.120997 66.1256 0.10617C66.1621 0.091342 66.2015 0.0844379 66.2409 0.0859297C66.5592 0.0859297 66.7449 0.310862 66.7979 0.767343Z" fill="#00284F"/>
<path d="M83.0366 20.3167L82.5658 17.1545C82.471 16.0163 82.0052 14.9404 81.2396 14.0914C80.4161 13.4158 79.3662 13.0777 78.3022 13.1454C77.3859 13.161 76.4828 13.366 75.6499 13.7474C74.7454 14.1467 73.9346 14.7304 73.2695 15.4608C72.9313 15.7982 72.6595 15.9702 72.4539 15.9702C72.3782 15.9814 72.3009 15.9747 72.2282 15.9507C72.1556 15.9267 72.0895 15.8861 72.0354 15.8321C71.9813 15.7781 71.9406 15.7122 71.9165 15.6397C71.8925 15.5672 71.8858 15.4901 71.8969 15.4145C71.9119 15.2907 71.9575 15.1725 72.0296 15.0705C72.1158 14.9316 72.2019 14.7993 72.2881 14.6868C73.1584 13.6771 74.2496 12.8803 75.4775 12.3581C76.7316 11.8088 78.0863 11.525 79.4559 11.5245C81.1657 11.4306 82.8533 11.9465 84.2168 12.98C85.4527 14.0785 86.2193 15.6081 86.3585 17.2537L87.7112 27.0383C87.7684 27.8666 87.994 28.6747 88.3743 29.4133C88.4886 29.634 88.6603 29.8199 88.8715 29.9514C89.0827 30.083 89.3255 30.1553 89.5744 30.1609C89.8064 30.1671 90.0357 30.1099 90.2375 29.9955C90.4065 29.9106 90.5437 29.7738 90.6287 29.6052L90.8409 29.1817C90.8409 29.0957 90.9271 29.0494 91.0995 29.0494C91.2719 29.0494 91.4841 29.2479 91.4841 29.6515C91.4746 29.9851 91.3809 30.311 91.2117 30.5989C91.0424 30.8869 90.8032 31.1276 90.516 31.2988C89.8102 31.7596 88.9785 31.9908 88.1356 31.9603C86.4779 31.9603 85.3352 31.3473 84.7075 30.1212C84.5682 29.8102 84.4489 29.6515 84.3627 29.6515L84.1969 29.7375C82.4464 31.1739 80.2436 31.9471 77.9773 31.9206C76.925 31.9309 75.879 31.7562 74.8874 31.4046C73.9935 31.0868 73.1663 30.6068 72.4473 29.9889C71.7628 29.3902 71.2077 28.6586 70.8161 27.8388C70.4196 27.0129 70.2156 26.1082 70.2194 25.1925C70.2144 24.3275 70.4191 23.4741 70.8161 22.705C71.2192 21.9342 71.782 21.2576 72.4672 20.7203C73.2154 20.1427 74.0561 19.6954 74.9537 19.3972C75.9553 19.0597 77.0064 18.892 78.0635 18.901C78.5064 18.9 78.9491 18.922 79.3897 18.9671C79.7683 19.011 80.1415 19.0931 80.5036 19.2119C80.8617 19.331 81.2463 19.4766 81.664 19.6552C82.1334 19.8502 82.5916 20.0711 83.0366 20.3167V20.3167ZM83.9383 26.3767L83.2752 22.189C82.6721 21.5655 81.9654 21.0508 81.1866 20.6674C80.4516 20.3356 79.6526 20.1685 78.8459 20.1778C78.1887 20.1562 77.5338 20.2663 76.92 20.5015C76.3061 20.7367 75.7457 21.0923 75.272 21.5473C74.8003 21.9986 74.4295 22.5443 74.1839 23.1485C73.9382 23.7527 73.8232 24.4019 73.8464 25.0536C73.8418 25.7666 73.9816 26.4732 74.2575 27.1309C74.5218 27.7631 74.9095 28.3365 75.3979 28.8179C75.8811 29.2966 76.4502 29.6803 77.0755 29.9492C77.7295 30.2264 78.4338 30.366 79.1443 30.3593C79.7768 30.3636 80.4066 30.2767 81.0142 30.1013C81.5612 29.9583 82.0841 29.7354 82.5658 29.4398C82.9881 29.179 83.348 28.829 83.62 28.4143C83.869 28.0491 84.0051 27.6189 84.0112 27.1772C84.0187 27.0494 84.0187 26.9213 84.0112 26.7935C83.9847 26.6612 83.9648 26.5355 83.9383 26.3767Z" fill="#00284F"/>
<path d="M101.914 25.7481V5.13373C101.978 4.29874 101.862 3.45981 101.576 2.6727C101.433 2.45264 101.236 2.27233 101.004 2.14856C100.772 2.02478 100.513 1.96158 100.25 1.96482C99.9638 1.96932 99.6819 1.89614 99.4343 1.75312C99.3579 1.68344 99.2989 1.59688 99.2621 1.50039C99.2253 1.40389 99.2116 1.30013 99.2221 1.1974C99.2221 0.740922 99.5802 0.535836 100.296 0.535836H107.477C108.193 0.535836 108.552 0.767385 108.552 1.1974C108.563 1.29787 108.549 1.39963 108.511 1.49329C108.473 1.58695 108.411 1.66948 108.333 1.73327C108.096 1.86495 107.834 1.94395 107.564 1.96482C107.276 1.98195 106.994 2.04679 106.728 2.15667C106.509 2.25904 106.333 2.43458 106.231 2.65285C106.099 2.94999 106.02 3.26798 105.999 3.59227C105.949 4.08904 105.927 4.5882 105.932 5.08742V12.1926C105.881 12.6249 105.997 13.0603 106.257 13.4099C106.61 13.6645 107.045 13.7778 107.477 13.7275H122.138C122.578 13.7733 123.02 13.6606 123.384 13.4099C123.667 13.0304 123.791 12.5558 123.729 12.0868V5.08742C123.794 4.26052 123.676 3.42954 123.384 2.65285C123.235 2.44263 123.035 2.27236 122.804 2.15701C122.573 2.04165 122.317 1.98474 122.058 1.99128C121.395 1.99128 121.031 1.70681 121.031 1.22386C121.031 0.740918 121.389 0.562294 122.105 0.562294H129.438C130.148 0.562294 130.506 0.793843 130.506 1.22386C130.506 1.65388 130.181 1.96482 129.518 1.99128C129.206 1.97074 128.895 2.04594 128.627 2.20677C128.359 2.36761 128.147 2.60638 128.019 2.89101C127.906 3.14818 127.841 3.42402 127.827 3.70474C127.827 3.98921 127.827 4.47215 127.827 5.16018V26.6744C127.827 27.4153 127.827 27.9115 127.867 28.1496C127.903 28.4184 127.961 28.6839 128.039 28.9435C128.14 29.2171 128.329 29.4496 128.576 29.6051C128.868 29.74 129.179 29.8271 129.498 29.8631C130.161 29.8631 130.486 30.1476 130.486 30.6305C130.486 31.1135 130.141 31.2921 129.458 31.2921H122.065C121.355 31.2921 120.997 31.0605 120.997 30.6305C120.997 30.2005 121.336 29.8896 122.025 29.8631C122.287 29.8616 122.545 29.7964 122.776 29.673C123.007 29.5497 123.205 29.3719 123.351 29.1552C123.658 28.3729 123.782 27.5315 123.716 26.6942V17.2404C123.774 16.7961 123.665 16.3462 123.411 15.9768C123.026 15.7412 122.573 15.6432 122.125 15.6989H107.477C107.048 15.652 106.616 15.7575 106.257 15.9967C105.997 16.3559 105.883 16.8005 105.939 17.2404V27.5476C105.939 27.7814 105.939 27.9732 105.939 28.1232C105.939 28.282 105.939 28.4143 105.979 28.5334C105.996 28.6508 106.032 28.7647 106.085 28.8707C106.183 29.1579 106.371 29.4056 106.622 29.5763C106.874 29.747 107.174 29.8314 107.477 29.8168C107.762 29.8364 108.04 29.9153 108.293 30.0483C108.369 30.1136 108.429 30.1966 108.466 30.29C108.503 30.3834 108.516 30.4844 108.505 30.5842C108.505 31.0407 108.147 31.2458 107.431 31.2458H100.184C99.5205 31.2458 99.1492 31.0142 99.1492 30.5842C99.137 30.4825 99.1486 30.3794 99.1831 30.283C99.2176 30.1866 99.2741 30.0994 99.3481 30.0285C99.5843 29.8815 99.8589 29.8079 100.137 29.8168C100.405 29.8257 100.672 29.7702 100.914 29.6551C101.156 29.54 101.367 29.3686 101.53 29.1552C101.833 28.4651 101.959 27.7099 101.894 26.9588V25.7548L101.914 25.7481Z" fill="#00284F"/>
<path d="M135.399 23.3137C135.061 23.4262 134.889 23.5585 134.889 23.6974C134.956 24.1711 135.104 24.6297 135.326 25.0536C135.967 26.5255 136.988 27.8016 138.284 28.7518C139.48 29.62 140.922 30.0836 142.401 30.0749C143.444 30.0705 144.471 29.8284 145.405 29.367C146.397 28.881 147.284 28.2069 148.018 27.3823C148.11 27.2576 148.227 27.1539 148.362 27.078C148.455 27.0285 148.556 26.9992 148.661 26.992C149.032 26.992 149.218 27.1971 149.218 27.594C149.202 27.808 149.129 28.0138 149.006 28.1894C148.116 29.3809 146.923 30.3129 145.551 30.8886C144.103 31.5402 142.532 31.8763 140.943 31.8744C139.533 31.8892 138.134 31.6191 136.832 31.0805C135.603 30.5798 134.49 29.8339 133.561 28.8885C132.631 27.9431 131.905 26.8182 131.428 25.5829C130.423 22.9705 130.393 20.0852 131.341 17.4522C131.766 16.2842 132.414 15.21 133.251 14.2899C134.07 13.4025 135.06 12.6891 136.162 12.1928C137.315 11.6779 138.565 11.4162 139.829 11.4253C141.214 11.4099 142.582 11.7396 143.807 12.3846C145.063 13.0587 146.154 14.0006 147.003 15.1433C147.602 15.9316 148.12 16.7783 148.548 17.6705C148.717 18.0328 148.819 18.4229 148.846 18.8216C148.853 18.9389 148.818 19.0548 148.748 19.149C148.677 19.2433 148.576 19.31 148.462 19.3377L135.399 23.3137ZM134.663 21.9442C134.801 21.9272 134.935 21.8822 135.055 21.8119L144.404 19.0995C144.749 19.0135 144.921 18.8547 144.921 18.6298C144.904 18.4048 144.859 18.1826 144.788 17.9682C144.702 17.6705 144.59 17.3067 144.45 16.9626C144.109 16.0678 143.564 15.2639 142.859 14.6141C142.356 14.1198 141.761 13.7292 141.106 13.4647C140.452 13.2002 139.752 13.067 139.046 13.0726C138.355 13.0521 137.669 13.2034 137.051 13.5129C136.433 13.8224 135.902 14.2804 135.505 14.8456C134.556 16.2819 134.091 17.9833 134.179 19.7015C134.171 20.247 134.215 20.7921 134.312 21.329C134.418 21.7458 134.531 21.9442 134.663 21.9442Z" fill="#00284F"/>
<path d="M155.079 0.681431V27.5874C155.071 27.9173 155.093 28.2473 155.146 28.5731C155.176 28.7626 155.225 28.9487 155.292 29.1288C155.461 29.3855 155.69 29.5976 155.959 29.7474C156.227 29.8971 156.529 29.9799 156.836 29.9888C157.44 30.0748 157.738 30.2998 157.738 30.6504C157.738 31.001 157.407 31.2524 156.75 31.2524H149.808C149.178 31.2524 148.866 31.0341 148.866 30.5909C148.866 30.1476 149.165 30.0418 149.761 29.9293C150.059 29.8517 150.348 29.743 150.623 29.6051C150.863 29.4919 151.058 29.3038 151.18 29.0693C151.417 28.5474 151.506 27.971 151.439 27.4021V6.05335C151.44 5.87369 151.425 5.69431 151.393 5.51748C151.38 5.19089 151.257 4.8782 151.044 4.62978C150.831 4.38135 150.54 4.21166 150.219 4.14804L149.927 4.06204C149.851 4.06039 149.777 4.04352 149.708 4.01242C149.639 3.98133 149.577 3.93664 149.525 3.88106C149.474 3.82548 149.434 3.76013 149.409 3.68892C149.383 3.61771 149.372 3.5421 149.377 3.46662C149.389 3.34837 149.431 3.23501 149.498 3.13682C149.565 3.03863 149.656 2.95871 149.761 2.9043L154.31 0.0860143C154.337 0.0571405 154.37 0.0344858 154.407 0.0196315C154.443 0.00477723 154.483 -0.00191184 154.522 1.74804e-05C154.834 1.74804e-05 155.02 0.224949 155.079 0.681431Z" fill="#00284F"/>
<path d="M164.767 21.7457L162.625 21.018C159.973 20.1359 158.658 18.6672 158.68 16.6119C158.681 15.923 158.843 15.2438 159.151 14.6272C159.46 14.0065 159.899 13.4586 160.437 13.0196C161.014 12.5607 161.667 12.2069 162.367 11.9744C163.155 11.7102 163.982 11.5805 164.813 11.5907C165.123 11.5907 165.395 11.5907 165.629 11.5907C165.865 11.6038 166.1 11.6325 166.332 11.6767C166.608 11.709 166.883 11.7576 167.154 11.8222L168.334 12.1662L168.911 12.3382C169.002 12.363 169.095 12.3763 169.19 12.3779C169.395 12.3779 169.594 12.1927 169.793 11.8222C169.855 11.672 169.943 11.5333 170.052 11.412C170.143 11.3635 170.247 11.3428 170.35 11.3525C170.493 11.3433 170.635 11.3805 170.754 11.4583C170.925 11.6241 171.064 11.8191 171.165 12.0339L173.48 16.2282L173.632 16.5259C173.667 16.5937 173.687 16.6681 173.692 16.7443C173.692 17.0287 173.539 17.1677 173.221 17.1677C173.032 17.1715 172.845 17.121 172.684 17.0221C172.467 16.8539 172.273 16.6582 172.107 16.44C171.204 15.3664 170.097 14.4807 168.851 13.8334C167.749 13.2192 166.513 12.881 165.251 12.8476C164.411 12.8245 163.588 13.0805 162.91 13.5754C162.615 13.7742 162.373 14.0421 162.205 14.3558C162.038 14.6695 161.95 15.0193 161.949 15.3748C161.943 15.7004 162.016 16.0225 162.161 16.3143C162.335 16.6331 162.585 16.9037 162.89 17.1015C163.329 17.3976 163.795 17.6502 164.283 17.8557C164.866 18.1071 165.609 18.3982 166.451 18.7091L168.977 19.6088C171.325 20.438 172.989 21.3201 173.97 22.2551C174.46 22.7192 174.845 23.2818 175.1 23.9058C175.355 24.5297 175.474 25.2006 175.449 25.8739C175.457 26.6979 175.29 27.5142 174.958 28.2688C174.639 28.9976 174.164 29.6479 173.566 30.1741C172.942 30.7148 172.222 31.1343 171.444 31.4112C170.593 31.7143 169.695 31.8665 168.792 31.8611C167.368 31.8227 165.955 31.6003 164.588 31.1995L163.839 31.0077C163.786 31.0109 163.734 30.9943 163.693 30.9613C163.659 30.9385 163.62 30.9248 163.58 30.9216C163.381 30.9216 163.156 31.1201 162.917 31.5171C162.853 31.6577 162.757 31.7821 162.638 31.8809C162.538 31.9325 162.426 31.9554 162.313 31.9471C162.171 31.9563 162.029 31.9191 161.909 31.8412C161.735 31.684 161.583 31.5037 161.458 31.3054L158.03 26.2576C157.82 26.0515 157.685 25.7815 157.645 25.4902C157.634 25.4146 157.641 25.3375 157.665 25.265C157.689 25.1925 157.73 25.1266 157.784 25.0726C157.838 25.0186 157.904 24.978 157.977 24.954C158.049 24.93 158.127 24.9233 158.202 24.9345C158.454 24.9345 158.773 25.1726 159.144 25.6622C159.585 26.1433 160.066 26.586 160.583 26.9853C161.339 27.616 162.145 28.2423 163.003 28.8642C163.726 29.4124 164.538 29.8331 165.403 30.1079C166.246 30.3862 167.128 30.5313 168.016 30.5379C169.037 30.591 170.039 30.2445 170.807 29.572C171.143 29.2436 171.404 28.8479 171.574 28.4111C171.745 27.9743 171.82 27.5063 171.795 27.0382C171.819 26.5956 171.75 26.153 171.595 25.7376C171.44 25.3223 171.201 24.9431 170.894 24.6235C170.675 24.3969 170.43 24.1971 170.164 24.0281C169.821 23.8125 169.464 23.6181 169.097 23.4459C168.666 23.2475 168.149 23.0358 167.552 22.7844L164.767 21.7457Z" fill="#00284F"/>
<path d="M189.552 20.2307L189.082 17.0684C188.982 15.9315 188.517 14.857 187.756 14.0054C186.922 13.3357 185.865 13.007 184.798 13.0858C183.882 13.1003 182.978 13.3054 182.146 13.6878C181.242 14.0879 180.431 14.6714 179.766 15.4013C179.421 15.7387 179.149 15.9107 178.95 15.9107C178.874 15.9218 178.797 15.9151 178.724 15.8912C178.652 15.8672 178.586 15.8265 178.531 15.7725C178.477 15.7185 178.437 15.6527 178.413 15.5802C178.389 15.5077 178.382 15.4305 178.393 15.355C178.408 15.2323 178.451 15.1146 178.519 15.011C178.605 14.872 178.691 14.7463 178.778 14.6273C179.652 13.6188 180.745 12.8224 181.974 12.2985C183.238 11.7442 184.604 11.4603 185.985 11.465C187.693 11.3714 189.378 11.8874 190.739 12.9204C191.98 14.0161 192.749 15.5468 192.888 17.1941L194.26 26.9523C194.318 27.7784 194.544 28.5841 194.923 29.3207C195.037 29.5426 195.208 29.7298 195.419 29.8626C195.631 29.9953 195.874 30.0687 196.124 30.0749C196.356 30.0787 196.585 30.0192 196.787 29.9028C196.955 29.8201 197.091 29.6824 197.171 29.5125L197.39 29.0891C197.39 29.0031 197.476 28.9568 197.642 28.9568C197.808 28.9568 198.033 29.1619 198.033 29.5588C198.024 29.8925 197.93 30.2183 197.761 30.5063C197.592 30.7942 197.352 31.0349 197.065 31.2061C196.359 31.6662 195.527 31.8972 194.685 31.8677C193.027 31.8677 191.884 31.2546 191.257 30.0285C191.111 29.7176 190.998 29.5588 190.912 29.5588L190.739 29.6448C188.992 31.0823 186.791 31.8557 184.526 31.828C183.474 31.8388 182.428 31.6642 181.436 31.312C180.543 30.9941 179.715 30.5142 178.996 29.8962C178.31 29.2989 177.755 28.567 177.365 27.7461C176.963 26.9222 176.756 26.0166 176.762 25.0999C176.756 24.2339 176.963 23.3798 177.365 22.6124C177.768 21.8413 178.331 21.1647 179.016 20.6277C179.763 20.0475 180.604 19.5999 181.503 19.3045C182.504 18.9666 183.555 18.7989 184.613 18.8084C185.055 18.8073 185.498 18.8294 185.939 18.8745C186.317 18.9184 186.691 19.0004 187.053 19.1193C187.411 19.2384 187.795 19.3839 188.213 19.5626C188.671 19.7608 189.118 19.9839 189.552 20.2307V20.2307ZM190.454 26.3039L189.791 22.1162C189.188 21.4928 188.481 20.978 187.702 20.5946C186.965 20.2621 186.164 20.095 185.355 20.105C184.698 20.0849 184.044 20.1957 183.43 20.4308C182.816 20.6659 182.256 21.0207 181.781 21.4745C181.311 21.9264 180.941 22.4724 180.697 23.0766C180.452 23.6808 180.338 24.3296 180.362 24.9808C180.357 25.6797 180.491 26.3728 180.757 27.0192C181.024 27.6656 181.417 28.2524 181.914 28.7451C182.394 29.2273 182.964 29.6116 183.591 29.8764C184.245 30.1536 184.95 30.2933 185.66 30.2866C186.293 30.29 186.922 30.2031 187.53 30.0285C188.076 29.8825 188.599 29.6597 189.082 29.367C189.504 29.1038 189.864 28.7516 190.136 28.3349C190.383 27.9693 190.517 27.5389 190.521 27.0978C190.528 26.97 190.528 26.8419 190.521 26.7141C190.501 26.5818 190.481 26.4495 190.454 26.3039Z" fill="#00284F"/>
</g>
<defs>
<clipPath id="clip0_1_13">
<rect width="198" height="32" fill="white"/>
</clipPath>
</defs>
</svg>
